<svg width="34" height="24" viewBox="0 0 34 24" fill="none" xmlns="http://www.w3.org/2000/svg">
<path fill-rule="evenodd" clip-rule="evenodd" d="M5.33325 0.333374C4.00717 0.333374 2.7354 0.860158 1.79772 1.79784C0.860036 2.73552 0.333252 4.00729 0.333252 5.33337V18.6667C0.333252 19.9928 0.860036 21.2646 1.79772 22.2022C2.7354 23.1399 4.00717 23.6667 5.33325 23.6667H21.9999C23.326 23.6667 24.5978 23.1399 25.5355 22.2022C26.4731 21.2646 26.9999 19.9928 26.9999 18.6667V16.0234L30.8216 19.845C31.0547 20.0781 31.3516 20.2367 31.6749 20.301C31.9981 20.3653 32.3332 20.3323 32.6377 20.2062C32.9422 20.0801 33.2024 19.8665 33.3856 19.5925C33.5687 19.3185 33.6665 18.9963 33.6666 18.6667V5.33337C33.6665 5.00379 33.5687 4.68163 33.3856 4.40761C33.2024 4.13359 32.9422 3.92003 32.6377 3.79391C32.3332 3.66779 31.9981 3.63479 31.6749 3.69907C31.3516 3.76335 31.0547 3.92203 30.8216 4.15504L26.9999 7.97671V5.33337C26.9999 4.00729 26.4731 2.73552 25.5355 1.79784C24.5978 0.860158 23.326 0.333374 21.9999 0.333374H5.33325Z" fill="#A0A0A0"/>
</svg>
