<svg width="16" height="16" viewBox="0 0 16 16" fill="none" xmlns="http://www.w3.org/2000/svg">
<path d="M10.5942 0.674997L10.6725 0.744163L15.2559 5.3275C15.3963 5.46873 15.4816 5.65561 15.4961 5.85427C15.5107 6.05294 15.4536 6.25025 15.3352 6.41045C15.2168 6.57065 15.045 6.68315 14.8508 6.72755C14.6566 6.77195 14.4529 6.74533 14.2767 6.6525L11.6334 9.295L10.4467 12.4592C10.4154 12.5427 10.371 12.6206 10.315 12.69L10.2567 12.7567L9.00669 14.0067C8.86309 14.15 8.67212 14.2361 8.4696 14.2486C8.26708 14.2612 8.06693 14.1995 7.90669 14.075L7.82753 14.0058L5.50003 11.6792L2.33919 14.8392C2.18923 14.9886 1.988 15.0754 1.77637 15.0819C1.56475 15.0883 1.3586 15.014 1.19979 14.874C1.04099 14.7339 0.941438 14.5387 0.92136 14.3279C0.901282 14.1172 0.962183 13.9067 1.09169 13.7392L1.16086 13.6608L4.32086 10.5L1.99419 8.1725C1.85071 8.029 1.76452 7.83809 1.75178 7.63556C1.73905 7.43304 1.80065 7.23283 1.92503 7.0725L1.99419 6.99416L3.24419 5.74416C3.30707 5.68106 3.37966 5.62845 3.45919 5.58833L3.54086 5.55333L6.70419 4.36583L9.34669 1.72416C9.25658 1.55569 9.2271 1.36137 9.26319 1.17375C9.29927 0.986131 9.39873 0.816609 9.5449 0.693578C9.69107 0.570547 9.87508 0.50148 10.0661 0.497945C10.2571 0.494411 10.4436 0.557457 10.5942 0.674997Z" fill="#BCBCBC"/>
</svg>
