<svg width="20" height="32" viewBox="0 0 20 32" fill="none" xmlns="http://www.w3.org/2000/svg">
<path d="M1.5 10.2058V21.6667C1.5 23.921 2.39553 26.083 3.98959 27.6771C5.58365 29.2711 7.74566 30.1667 10 30.1667C12.2543 30.1667 14.4163 29.2711 16.0104 27.6771C17.6045 26.083 18.5 23.921 18.5 21.6667V7.49999C18.5 5.9971 17.903 4.55576 16.8403 3.49306C15.7776 2.43035 14.3362 1.83333 12.8333 1.83333C11.3304 1.83333 9.8891 2.43035 8.82639 3.49306C7.76369 4.55576 7.16667 5.9971 7.16667 7.49999V20.5078C7.16667 20.8799 7.23995 21.2483 7.38234 21.5921C7.52473 21.9359 7.73343 22.2482 7.99653 22.5113C8.25963 22.7744 8.57197 22.9831 8.91573 23.1255C9.25949 23.2679 9.62792 23.3412 10 23.3412C10.7514 23.3412 11.4721 23.0426 12.0035 22.5113C12.5348 21.9799 12.8333 21.2593 12.8333 20.5078V10.3333" stroke="#A0A0A0" stroke-width="2.6" stroke-linecap="round" stroke-linejoin="round"/>
</svg>
