<svg width="40" height="40" viewBox="0 0 40 40" fill="none" xmlns="http://www.w3.org/2000/svg">
<g clip-path="url(#clip0_13_345)">
<path fill-rule="evenodd" clip-rule="evenodd" d="M28.3334 5C30.5435 5 32.6631 5.87797 34.2259 7.44078C35.7887 9.00358 36.6667 11.1232 36.6667 13.3333V26.6667C36.6667 28.8768 35.7887 30.9964 34.2259 32.5592C32.6631 34.122 30.5435 35 28.3334 35H5.00004C4.55801 35 4.13409 34.8244 3.82153 34.5118C3.50897 34.1993 3.33337 33.7754 3.33337 33.3333V13.3333C3.33337 11.1232 4.21135 9.00358 5.77415 7.44078C7.33695 5.87797 9.45657 5 11.6667 5H28.3334ZM15 16.6667C14.5918 16.6667 14.1978 16.8166 13.8928 17.0879C13.5877 17.3591 13.3928 17.7329 13.345 18.1383L13.3334 18.3333V21.6667C13.3338 22.0915 13.4965 22.5001 13.7881 22.8089C14.0797 23.1178 14.4783 23.3037 14.9024 23.3286C15.3264 23.3535 15.744 23.2155 16.0698 22.9429C16.3955 22.6702 16.6049 22.2835 16.655 21.8617L16.6667 21.6667V18.3333C16.6667 17.8913 16.4911 17.4674 16.1786 17.1548C15.866 16.8423 15.4421 16.6667 15 16.6667ZM25 16.6667C24.558 16.6667 24.1341 16.8423 23.8215 17.1548C23.509 17.4674 23.3334 17.8913 23.3334 18.3333V21.6667C23.3334 22.1087 23.509 22.5326 23.8215 22.8452C24.1341 23.1577 24.558 23.3333 25 23.3333C25.4421 23.3333 25.866 23.1577 26.1786 22.8452C26.4911 22.5326 26.6667 22.1087 26.6667 21.6667V18.3333C26.6667 17.8913 26.4911 17.4674 26.1786 17.1548C25.866 16.8423 25.4421 16.6667 25 16.6667Z" fill="#00A3FF"/>
</g>
<defs>
<clipPath id="clip0_13_345">
<rect width="40" height="40" fill="white"/>
</clipPath>
</defs>
</svg>
