<svg width="8" height="30" viewBox="0 0 8 30" fill="none" xmlns="http://www.w3.org/2000/svg">
<path d="M4.00008 0C2.16675 0 0.666748 1.5 0.666748 3.33333C0.666748 5.16667 2.16675 6.66667 4.00008 6.66667C5.83342 6.66667 7.33342 5.16667 7.33342 3.33333C7.33342 1.5 5.83342 0 4.00008 0ZM4.00008 23.3333C2.16675 23.3333 0.666748 24.8333 0.666748 26.6667C0.666748 28.5 2.16675 30 4.00008 30C5.83342 30 7.33342 28.5 7.33342 26.6667C7.33342 24.8333 5.83342 23.3333 4.00008 23.3333ZM4.00008 11.6667C2.16675 11.6667 0.666748 13.1667 0.666748 15C0.666748 16.8333 2.16675 18.3333 4.00008 18.3333C5.83342 18.3333 7.33342 16.8333 7.33342 15C7.33342 13.1667 5.83342 11.6667 4.00008 11.6667Z" fill="#A0A0A0"/>
</svg>
